<svg width="1373" height="240" viewBox="0 0 1373 240" fill="none" xmlns="http://www.w3.org/2000/svg">
<path d="M37.1913 239.2C27.3779 239.2 20.2313 236 15.7513 229.6C11.2713 223.2 9.77792 214.667 11.2713 204L25.6713 101.6L24.0713 100H0.0712507L1.67125 88.8C14.4713 87.9467 24.6046 82.1867 32.0712 71.52C39.7513 60.64 45.7246 44 49.9913 21.6H61.1913L51.5913 88.8H90.3113L88.7113 100H51.5913L49.9913 101.6L35.2713 205.6C34.2046 213.493 34.5246 218.72 36.2313 221.28C38.1513 223.627 40.3913 224.8 42.9513 224.8C47.8579 224.8 52.5513 222.347 57.0313 217.44C61.7246 212.32 66.2046 205.173 70.4713 196L80.3913 201.44C75.2713 213.173 69.4046 222.453 62.7913 229.28C56.3913 235.893 47.8579 239.2 37.1913 239.2ZM259.899 202.4L269.819 207.84C264.485 219.36 258.725 227.467 252.539 232.16C246.565 236.853 239.845 239.2 232.379 239.2C223.632 239.2 216.805 236.213 211.899 230.24C207.205 224.053 205.925 214.133 208.059 200.48L218.299 133.92C219.152 129.227 219.365 124.32 218.939 119.2C218.512 113.867 216.805 109.387 213.819 105.76C211.045 101.92 206.139 100 199.099 100C195.259 100 190.885 100.747 185.979 102.24C181.072 103.733 176.165 106.72 171.259 111.2C166.565 115.467 162.299 121.653 158.459 129.76C154.619 137.867 151.739 148.533 149.819 161.76L139.259 236H114.939L146.299 15.2L144.699 13.6H121.019L122.619 2.39999C130.939 2.39999 138.832 2.29333 146.299 2.08C153.979 1.86665 162.085 1.43999 170.619 0.799995L172.219 2.39999L156.859 110.88C161.125 104.053 167.099 98.1867 174.779 93.28C182.672 88.16 192.485 85.6 204.219 85.6C218.512 85.6 229.072 89.76 235.899 98.08C242.939 106.4 245.392 117.28 243.259 130.72L231.739 204.96C230.885 211.573 231.099 216.587 232.379 220C233.659 223.2 235.792 224.8 238.779 224.8C242.405 224.8 245.925 222.773 249.339 218.72C252.965 214.453 256.485 209.013 259.899 202.4ZM348.921 239.2C337.188 239.2 327.055 236.747 318.521 231.84C309.988 226.72 303.375 219.36 298.681 209.76C293.988 200.16 291.641 188.64 291.641 175.2C291.641 157.92 295.268 142.56 302.521 129.12C309.988 115.467 320.015 104.8 332.601 97.12C345.401 89.44 359.695 85.6 375.481 85.6C382.521 85.6 389.241 86.56 395.641 88.48C402.255 90.1867 407.588 93.1733 411.641 97.44C415.695 101.493 417.721 107.04 417.721 114.08C417.721 121.547 414.948 128.373 409.401 134.56C403.855 140.747 396.175 146.187 386.361 150.88C376.761 155.573 365.775 159.413 353.401 162.4C341.028 165.173 328.121 167.093 314.681 168.16V157.92C325.348 156.853 335.268 155.147 344.441 152.8C353.828 150.453 362.041 147.573 369.081 144.16C376.121 140.533 381.561 136.373 385.401 131.68C389.455 126.773 391.481 121.44 391.481 115.68C391.481 109.92 389.775 105.333 386.361 101.92C383.161 98.5067 378.361 96.8 371.961 96.8C364.068 96.8 356.815 98.8267 350.201 102.88C343.588 106.933 337.828 112.587 332.921 119.84C328.015 127.093 324.281 135.52 321.721 145.12C319.161 154.507 317.881 164.747 317.881 175.84C317.881 187.787 319.375 197.493 322.361 204.96C325.561 212.427 329.828 217.867 335.161 221.28C340.708 224.693 347.001 226.4 354.041 226.4C363.215 226.4 371.535 223.413 379.001 217.44C386.681 211.467 392.761 204.747 397.241 197.28L407.161 202.72C403.961 208.48 399.588 214.133 394.041 219.68C388.708 225.227 382.308 229.92 374.841 233.76C367.375 237.387 358.735 239.2 348.921 239.2ZM502.041 236L503.641 224.8H529.561L531.161 223.2L557.721 34.4L556.121 32.8H530.521L532.121 21.6H622.681C632.068 21.6 641.241 22.4533 650.201 24.16C659.161 25.8667 667.375 28.7467 674.841 32.8C682.308 36.8533 688.175 42.2933 692.441 49.12C696.921 55.9467 699.161 64.48 699.161 74.72C699.161 86.6667 696.175 97.0133 690.201 105.76C684.441 114.293 676.868 121.333 667.481 126.88C658.308 132.427 648.601 136.587 638.361 139.36C628.121 141.92 618.521 143.2 609.561 143.2H571.161L559.961 223.2L561.561 224.8H599.641L598.041 236H502.041ZM572.761 132H604.761C615.428 132 625.668 130.72 635.481 128.16C645.295 125.387 653.295 120.267 659.481 112.8C665.668 105.333 668.761 94.6667 668.761 80.8C668.761 68.8533 666.415 59.4667 661.721 52.64C657.241 45.6 651.161 40.5867 643.481 37.6C636.015 34.4 627.695 32.8 618.521 32.8H588.121L586.521 34.4L572.761 132ZM782.541 85.6C793.848 85.6 803.768 88.2667 812.301 93.6C820.835 98.9333 827.448 106.4 832.141 116C836.835 125.6 839.181 136.8 839.181 149.6C839.181 161.333 837.155 172.64 833.101 183.52C829.261 194.187 823.821 203.68 816.781 212C809.741 220.32 801.421 226.933 791.821 231.84C782.221 236.747 771.768 239.2 760.461 239.2C749.155 239.2 739.235 236.533 730.701 231.2C722.168 225.867 715.555 218.4 710.861 208.8C706.168 198.987 703.821 187.787 703.821 175.2C703.821 163.467 705.741 152.267 709.581 141.6C713.635 130.72 719.181 121.12 726.221 112.8C733.261 104.48 741.581 97.8667 751.181 92.96C760.781 88.0533 771.235 85.6 782.541 85.6ZM763.341 228C770.808 228 777.528 225.867 783.501 221.6C789.475 217.333 794.595 211.573 798.861 204.32C803.128 196.853 806.328 188.32 808.461 178.72C810.808 169.12 811.981 158.987 811.981 148.32C811.981 136.587 810.595 126.987 807.821 119.52C805.048 111.84 801.208 106.187 796.301 102.56C791.395 98.72 785.848 96.8 779.661 96.8C772.195 96.8 765.475 98.9333 759.501 103.2C753.528 107.467 748.408 113.333 744.141 120.8C739.875 128.053 736.568 136.48 734.221 146.08C732.088 155.68 731.021 165.813 731.021 176.48C731.021 188.213 732.408 197.92 735.181 205.6C737.955 213.067 741.795 218.72 746.701 222.56C751.608 226.187 757.155 228 763.341 228ZM1078.73 87.2L1080.33 88.8C1079.48 100.96 1077.88 113.867 1075.53 127.52C1073.4 141.173 1070.31 154.613 1066.25 167.84C1062.41 181.067 1057.4 193.12 1051.21 204C1045.24 214.667 1037.88 223.2 1029.13 229.6C1020.6 236 1010.57 239.2 999.054 239.2C989.24 239.2 981.24 236.533 975.054 231.2C969.08 225.653 965.454 218.293 964.174 209.12C960.76 215.733 956.494 221.28 951.374 225.76C946.254 230.24 940.707 233.653 934.734 236C928.974 238.133 923 239.2 916.814 239.2C903.8 239.2 894.094 235.04 887.694 226.72C881.507 218.4 879.374 207.413 881.294 193.76L894.414 101.6L892.814 100H869.134L870.734 88.8C879.054 88.8 886.947 88.6933 894.414 88.48C902.094 88.2667 910.2 87.84 918.734 87.2L920.334 88.8L905.294 194.72C904.227 202.613 904.974 209.653 907.534 215.84C910.307 221.813 915.64 224.8 923.534 224.8C929.934 224.8 936.227 222.453 942.414 217.76C948.6 212.853 954.04 205.92 958.734 196.96C963.427 188 966.627 177.333 968.334 164.96L977.614 101.6L976.014 100H952.334L953.934 88.8C962.254 88.8 970.147 88.6933 977.614 88.48C985.294 88.2667 993.4 87.84 1001.93 87.2L1003.53 88.8L988.494 194.72C987.427 202.613 988.067 209.653 990.414 215.84C992.974 221.813 998.2 224.8 1006.09 224.8C1014.84 224.8 1022.84 220.64 1030.09 212.32C1037.35 203.787 1043.11 192.587 1047.37 178.72C1051.85 164.853 1054.09 149.6 1054.09 132.96C1054.09 125.493 1053.56 119.307 1052.49 114.4C1051.64 109.493 1050.68 104.693 1049.61 100H1027.85L1029.45 88.8C1037.77 88.8 1045.88 88.6933 1053.77 88.48C1061.88 88.2667 1070.2 87.84 1078.73 87.2ZM1166.11 239.2C1154.38 239.2 1144.24 236.747 1135.71 231.84C1127.18 226.72 1120.56 219.36 1115.87 209.76C1111.18 200.16 1108.83 188.64 1108.83 175.2C1108.83 157.92 1112.46 142.56 1119.71 129.12C1127.18 115.467 1137.2 104.8 1149.79 97.12C1162.59 89.44 1176.88 85.6 1192.67 85.6C1199.71 85.6 1206.43 86.56 1212.83 88.48C1219.44 90.1867 1224.78 93.1733 1228.83 97.44C1232.88 101.493 1234.91 107.04 1234.91 114.08C1234.91 121.547 1232.14 128.373 1226.59 134.56C1221.04 140.747 1213.36 146.187 1203.55 150.88C1193.95 155.573 1182.96 159.413 1170.59 162.4C1158.22 165.173 1145.31 167.093 1131.87 168.16V157.92C1142.54 156.853 1152.46 155.147 1161.63 152.8C1171.02 150.453 1179.23 147.573 1186.27 144.16C1193.31 140.533 1198.75 136.373 1202.59 131.68C1206.64 126.773 1208.67 121.44 1208.67 115.68C1208.67 109.92 1206.96 105.333 1203.55 101.92C1200.35 98.5067 1195.55 96.8 1189.15 96.8C1181.26 96.8 1174 98.8267 1167.39 102.88C1160.78 106.933 1155.02 112.587 1150.11 119.84C1145.2 127.093 1141.47 135.52 1138.91 145.12C1136.35 154.507 1135.07 164.747 1135.07 175.84C1135.07 187.787 1136.56 197.493 1139.55 204.96C1142.75 212.427 1147.02 217.867 1152.35 221.28C1157.9 224.693 1164.19 226.4 1171.23 226.4C1180.4 226.4 1188.72 223.413 1196.19 217.44C1203.87 211.467 1209.95 204.747 1214.43 197.28L1224.35 202.72C1221.15 208.48 1216.78 214.133 1211.23 219.68C1205.9 225.227 1199.5 229.92 1192.03 233.76C1184.56 237.387 1175.92 239.2 1166.11 239.2ZM1262.76 236L1281.64 101.6L1280.04 100H1256.36L1257.96 88.8C1266.28 88.8 1273.96 88.6933 1281 88.48C1288.25 88.2667 1296.15 87.84 1304.68 87.2L1306.28 88.8L1301.48 122.08H1303.08C1306.07 116.32 1310.01 110.667 1314.92 105.12C1319.83 99.36 1325.48 94.6667 1331.88 91.04C1338.49 87.4133 1345.43 85.6 1352.68 85.6C1358.87 85.6 1363.67 87.4133 1367.08 91.04C1370.71 94.6667 1372.52 99.04 1372.52 104.16C1372.52 109.92 1370.81 115.04 1367.4 119.52C1363.99 124 1359.29 126.24 1353.32 126.24C1348.63 126.24 1344.89 124.853 1342.12 122.08C1339.56 119.307 1338.28 115.573 1338.28 110.88C1338.28 107.893 1339.13 104.693 1340.84 101.28C1331.03 105.333 1321.75 113.973 1313 127.2C1304.47 140.213 1298.71 156.213 1295.72 175.2L1287.08 236H1262.76Z" fill="white"/>
</svg>
