<svg width="20" height="21" viewBox="0 0 20 21" fill="none" xmlns="http://www.w3.org/2000/svg">
<path d="M16.6304 10.745C17.9189 8.66973 18.5815 7.64689 19.9583 5.66795V5.66054C19.9876 5.60139 20.0019 5.53584 19.9999 5.46977C19.9979 5.4037 19.9797 5.33914 19.9469 5.28189C19.9141 5.22463 19.8677 5.17645 19.8119 5.14164C19.7561 5.10683 19.6925 5.08649 19.627 5.08242C17.4355 4.97861 15.2392 5.05298 13.0596 5.30478C13.0001 5.31249 12.9396 5.30574 12.8833 5.28511C12.8269 5.26448 12.7763 5.23056 12.7356 5.18619C10.9171 3.25912 9.97467 2.34006 8.03095 0.590881C7.97866 0.547078 7.9159 0.517794 7.8489 0.505936C7.78191 0.494077 7.71302 0.500052 7.64902 0.523273C7.58503 0.546495 7.52817 0.586152 7.4841 0.638313C7.44003 0.690475 7.41027 0.753332 7.39778 0.820644C7.05173 3.36289 6.88238 4.6303 6.57315 7.17996C6.56486 7.23855 6.5433 7.29443 6.5101 7.34327C6.4769 7.39211 6.43298 7.43261 6.38174 7.46161C4.4264 8.54246 2.54478 9.75327 0.749372 11.086C0.693559 11.1182 0.647786 11.1656 0.617211 11.2226C0.586636 11.2796 0.572471 11.3441 0.576295 11.4087C0.58012 11.4734 0.60177 11.5358 0.638848 11.5887C0.675926 11.6417 0.726954 11.6832 0.786176 11.7086C2.75185 12.2345 4.67626 12.9059 6.54371 13.7171C6.59429 13.7393 6.63842 13.774 6.67192 13.8181C6.70542 13.8622 6.72716 13.9142 6.73513 13.9692C7.15479 16.4595 7.36095 17.7121 7.75117 20.2099C7.75542 20.2727 7.77853 20.3328 7.81743 20.3822C7.85632 20.4315 7.90919 20.4678 7.96902 20.4863C8.02886 20.5048 8.09285 20.5046 8.15255 20.4856C8.21224 20.4667 8.26483 20.43 8.30336 20.3804C9.94521 18.4829 10.7919 17.5787 12.5442 15.8443C12.5832 15.8056 12.6315 15.7777 12.6845 15.7635C12.7374 15.7492 12.7931 15.7489 12.8461 15.7628C14.8774 16.2227 16.8692 16.8448 18.8024 17.6232C18.8612 17.6457 18.9255 17.6496 18.9866 17.6344C19.0477 17.6192 19.1027 17.5856 19.1443 17.538C19.1859 17.4905 19.2121 17.4313 19.2194 17.3684C19.2268 17.3055 19.2148 17.2418 19.1852 17.1859C18.2134 14.7103 17.7054 13.4874 16.6304 11.0711C16.6034 11.0211 16.5892 10.9651 16.5892 10.9081C16.5892 10.8511 16.6034 10.7951 16.6304 10.745Z" fill="#F9F9F3"/>
</svg>
